<svg width="94" height="94" viewBox="0 0 94 94" fill="none" xmlns="http://www.w3.org/2000/svg">
<path d="M25.707 53.4583L31.582 37.7916C31.7132 37.443 31.8934 37.114 32.1147 36.8163L43.8647 21.1497C43.8999 21.1027 43.9489 21.0674 43.9861 21.0204C40.0635 19.7436 37.2083 16.0991 37.2083 11.7497C37.2083 6.34272 41.593 1.95801 47 1.95801C52.4069 1.95801 56.7916 6.34272 56.7916 11.7497C56.7916 16.0933 53.9442 19.7318 50.0295 21.0145L61.1019 33.6693L71.8669 24.4416C73.5099 23.0355 75.9833 23.2255 77.3894 24.8666C78.7974 26.5096 78.6074 28.983 76.9644 30.3891L63.2561 42.1391C61.6248 43.5373 59.1749 43.3611 57.759 41.7435L50.9166 33.9239V52.2382L62.4649 86.885C63.1484 88.9374 62.0399 91.1542 59.9876 91.8396C57.9431 92.525 55.7165 91.4166 55.033 89.3623L47 65.2611L38.9649 89.3643C38.4185 91.0054 36.891 92.0413 35.25 92.0413C34.8387 92.0413 34.4216 91.9767 34.0103 91.8396C31.958 91.1542 30.8496 88.9374 31.533 86.885L43.0833 52.2382V35.2497L38.7201 41.0679L33.0429 56.2078C32.4534 57.7803 30.9612 58.7497 29.375 58.7497C28.9187 58.7497 28.4526 58.6694 28.0002 58.499C25.9753 57.7411 24.9472 55.4832 25.707 53.4583Z" fill="#64748B"/>
<path d="M49.4482 4.02306V2C52.8742 2.80654 56.5671 6.12466 56.7705 11.0577C56.9855 16.2476 53.2869 20.0178 49.4463 20.9585V18.9259C51.3407 18.2515 52.8051 17.0599 53.8013 15.3165C54.5019 14.0923 54.8339 12.7666 54.8128 11.3585C54.7859 9.69756 54.2831 8.18792 53.2965 6.84499C52.3138 5.50587 51.024 4.57097 49.4482 4.02114V4.02306Z" fill="white"/>
<path d="M49.4483 6.18262C51.2199 6.98724 52.8859 8.98732 52.8091 11.6541C52.7362 14.1944 51.0778 16.0412 49.4464 16.7711C49.4445 16.7442 49.4387 16.7213 49.4387 16.6964C49.4387 16.0776 49.4387 15.4607 49.4387 14.8419C49.4387 14.7768 49.4675 14.7442 49.5117 14.7078C50.3293 14.043 50.8475 13.1963 51.0126 12.1598C51.2256 10.8226 50.8629 9.64253 49.9435 8.64055C49.8072 8.49115 49.648 8.36276 49.4963 8.22672C49.4636 8.19608 49.4426 8.17116 49.4426 8.12331C49.4445 7.49301 49.4445 6.8608 49.4445 6.23051C49.4445 6.2171 49.4464 6.20561 49.4483 6.18453V6.18262Z" fill="white"/>
<path d="M48.0644 13.7702C47.7323 13.9388 47.3773 14.0308 47.003 14.0442C46.9646 14.0442 46.9282 14.0423 46.8898 14.0385C46.8513 14.0403 46.8149 14.0442 46.7765 14.0442C46.4022 14.0308 46.0472 13.9407 45.7151 13.7702C44.6249 13.2147 44.0798 12.0134 44.3792 10.8314C44.6191 9.88121 45.4195 9.13403 46.3927 8.954C46.5519 8.92522 46.7151 8.91565 46.8783 8.89844C46.8821 8.89844 46.8859 8.89844 46.8917 8.89844C46.8955 8.89844 46.8994 8.89844 46.9051 8.89844C47.0664 8.91565 47.2314 8.92522 47.3907 8.954C48.3658 9.13211 49.1642 9.87929 49.4041 10.8314C49.7035 12.0116 49.1584 13.2127 48.0683 13.7702H48.0644Z" fill="white"/>
<path d="M44.3313 4.02305C44.3313 3.34679 44.3313 2.67435 44.3313 2C40.9053 2.80654 37.2124 6.12466 37.0089 11.0578C36.794 16.2476 40.4926 20.0179 44.3332 20.9585C44.3332 20.2822 44.3332 19.606 44.3332 18.9258C42.4388 18.2515 40.9743 17.0599 39.9782 15.3165C39.2776 14.0924 38.9456 12.7666 38.9667 11.3586C38.9935 9.6976 39.4964 8.18795 40.483 6.84499C41.4657 5.50587 42.7555 4.57097 44.3313 4.02114V4.02305Z" fill="white"/>
<path d="M44.3294 6.18262C42.5578 6.98724 40.8919 8.98732 40.9686 11.6541C41.0416 14.1944 42.6999 16.0412 44.3314 16.7711C44.3332 16.7442 44.339 16.7213 44.339 16.6964C44.339 16.0776 44.339 15.4607 44.339 14.8419C44.339 14.7768 44.3102 14.7442 44.2661 14.7078C43.4485 14.043 42.9302 13.1963 42.7651 12.1598C42.5521 10.8226 42.9148 9.64253 43.8342 8.64055C43.9705 8.49115 44.1298 8.36276 44.2814 8.22672C44.3141 8.19608 44.3352 8.17116 44.3352 8.12331C44.3332 7.49301 44.3332 6.8608 44.3332 6.23051C44.3332 6.2171 44.3314 6.20561 44.3294 6.18453V6.18262Z" fill="white"/>
<path d="M44 21C39.0115 18.5421 37.4796 16.5605 37 11.5C37.5 6.5 39.5 4 44 2" stroke="#64748B" stroke-width="0.3"/>
<path d="M50 2C54.9885 4.45791 56.5204 6.43953 57 11.5C56.5 16.5 54.5 19 50 21" stroke="#64748B" stroke-width="0.3"/>
<path d="M29.375 50.9163C30.4138 50.9163 31.41 51.329 32.1445 52.0635C32.8791 52.798 33.2917 53.7942 33.2917 54.833C33.2917 55.8718 32.8791 56.868 32.1445 57.6025C31.41 58.337 30.4138 58.7497 29.375 58.7497C28.3363 58.7497 27.3401 58.337 26.6055 57.6025C25.871 56.868 25.4584 55.8718 25.4584 54.833C25.4584 53.7942 25.871 52.798 26.6055 52.0635C27.3401 51.329 28.3363 50.9163 29.375 50.9163ZM74.4167 23.4997C75.4555 23.4997 76.4517 23.9123 77.1862 24.6468C77.9207 25.3814 78.3334 26.3776 78.3334 27.4163C78.3334 28.4551 77.9207 29.4513 77.1862 30.1858C76.4517 30.9204 75.4555 31.333 74.4167 31.333C73.3779 31.333 72.3817 30.9204 71.6472 30.1858C70.9127 29.4513 70.5 28.4551 70.5 27.4163C70.5 26.3776 70.9127 25.3814 71.6472 24.6468C72.3817 23.9123 73.3779 23.4997 74.4167 23.4997ZM60.7084 35.2497C61.7471 35.2497 62.7434 35.6623 63.4779 36.3968C64.2124 37.1314 64.625 38.1276 64.625 39.1663C64.625 40.2051 64.2124 41.2013 63.4779 41.9358C62.7434 42.6704 61.7471 43.083 60.7084 43.083C59.6696 43.083 58.6734 42.6704 57.9389 41.9358C57.2044 41.2013 56.7917 40.2051 56.7917 39.1663C56.7917 38.1276 57.2044 37.1314 57.9389 36.3968C58.6734 35.6623 59.6696 35.2497 60.7084 35.2497ZM47 19.583C48.0388 19.583 49.035 19.9957 49.7695 20.7302C50.5041 21.4647 50.9167 22.4609 50.9167 23.4997C50.9167 24.5384 50.5041 25.5347 49.7695 26.2692C49.035 27.0037 48.0388 27.4163 47 27.4163C45.9613 27.4163 44.9651 27.0037 44.2305 26.2692C43.496 25.5347 43.0834 24.5384 43.0834 23.4997C43.0834 22.4609 43.496 21.4647 44.2305 20.7302C44.9651 19.9957 45.9613 19.583 47 19.583ZM35.25 35.2497C36.2888 35.2497 37.285 35.6623 38.0195 36.3968C38.7541 37.1314 39.1667 38.1276 39.1667 39.1663C39.1667 40.2051 38.7541 41.2013 38.0195 41.9358C37.285 42.6704 36.2888 43.083 35.25 43.083C34.2113 43.083 33.2151 42.6704 32.4805 41.9358C31.746 41.2013 31.3334 40.2051 31.3334 39.1663C31.3334 38.1276 31.746 37.1314 32.4805 36.3968C33.2151 35.6623 34.2113 35.2497 35.25 35.2497ZM47 35.2497C48.0388 35.2497 49.035 35.6623 49.7695 36.3968C50.5041 37.1314 50.9167 38.1276 50.9167 39.1663C50.9167 40.2051 50.5041 41.2013 49.7695 41.9358C49.035 42.6704 48.0388 43.083 47 43.083C45.9613 43.083 44.9651 42.6704 44.2305 41.9358C43.496 41.2013 43.0834 40.2051 43.0834 39.1663C43.0834 38.1276 43.496 37.1314 44.2305 36.3968C44.9651 35.6623 45.9613 35.2497 47 35.2497ZM35.25 84.208C36.2888 84.208 37.285 84.6207 38.0195 85.3552C38.7541 86.0897 39.1667 87.0859 39.1667 88.1247C39.1667 89.1634 38.7541 90.1597 38.0195 90.8942C37.285 91.6287 36.2888 92.0413 35.25 92.0413C34.2113 92.0413 33.2151 91.6287 32.4805 90.8942C31.746 90.1597 31.3334 89.1634 31.3334 88.1247C31.3334 87.0859 31.746 86.0897 32.4805 85.3552C33.2151 84.6207 34.2113 84.208 35.25 84.208ZM41.125 66.583C42.1638 66.583 43.16 66.9957 43.8945 67.7302C44.6291 68.4647 45.0417 69.4609 45.0417 70.4997C45.0417 71.5384 44.6291 72.5347 43.8945 73.2692C43.16 74.0037 42.1638 74.4163 41.125 74.4163C40.0863 74.4163 39.0901 74.0037 38.3555 73.2692C37.621 72.5347 37.2084 71.5384 37.2084 70.4997C37.2084 69.4609 37.621 68.4647 38.3555 67.7302C39.0901 66.9957 40.0863 66.583 41.125 66.583ZM52.875 66.583C53.9138 66.583 54.91 66.9957 55.6445 67.7302C56.3791 68.4647 56.7917 69.4609 56.7917 70.4997C56.7917 71.5384 56.3791 72.5347 55.6445 73.2692C54.91 74.0037 53.9138 74.4163 52.875 74.4163C51.8363 74.4163 50.8401 74.0037 50.1055 73.2692C49.371 72.5347 48.9584 71.5384 48.9584 70.4997C48.9584 69.4609 49.371 68.4647 50.1055 67.7302C50.8401 66.9957 51.8363 66.583 52.875 66.583ZM58.75 84.208C59.7888 84.208 60.785 84.6207 61.5195 85.3552C62.2541 86.0897 62.6667 87.0859 62.6667 88.1247C62.6667 89.1634 62.2541 90.1597 61.5195 90.8942C60.785 91.6287 59.7888 92.0413 58.75 92.0413C57.7113 92.0413 56.7151 91.6287 55.9805 90.8942C55.246 90.1597 54.8334 89.1634 54.8334 88.1247C54.8334 87.0859 55.246 86.0897 55.9805 85.3552C56.7151 84.6207 57.7113 84.208 58.75 84.208Z" fill="#FD3948"/>
<path d="M47 50.917C48.0387 50.917 49.0349 51.3296 49.7695 52.0642C50.504 52.7987 50.9166 53.7949 50.9166 54.8337C50.9166 55.8724 50.504 56.8686 49.7695 57.6032C49.0349 58.3377 48.0387 58.7503 47 58.7503C45.9612 58.7503 44.965 58.3377 44.2305 57.6032C43.4959 56.8686 43.0833 55.8724 43.0833 54.8337C43.0833 53.7949 43.4959 52.7987 44.2305 52.0642C44.965 51.3296 45.9612 50.917 47 50.917Z" fill="#F9A737"/>
</svg>
